<svg viewBox="0 0 24 24" fill="none" xmlns="http://www.w3.org/2000/svg">
<path fill-rule="evenodd" clip-rule="evenodd" d="M6.47461 6.732L7.54261 7.366C7.69561 7.457 7.86361 7.5 8.02761 7.5C8.36361 7.5 8.69061 7.32 8.87061 7C9.13861 6.521 8.97961 5.91 8.51461 5.634L7.44661 5L8.51461 4.366C8.97961 4.09 9.13961 3.478 8.87061 3C8.60161 2.521 8.00761 2.356 7.54161 2.634L6.47361 3.268V2C6.47361 1.447 6.03861 1 5.50061 1C4.96261 1 4.52761 1.447 4.52761 2V3.268L3.45961 2.634C2.99261 2.357 2.39961 2.523 2.13061 3C1.86261 3.479 2.02161 4.09 2.48661 4.366L3.55461 5L2.48661 5.634C2.02161 5.91 1.86161 6.522 2.13061 7C2.31061 7.321 2.63761 7.5 2.97361 7.5C3.13861 7.5 3.30561 7.457 3.45861 7.366L4.52661 6.732V8C4.52661 8.553 4.96161 9 5.49961 9C6.03761 9 6.47461 8.553 6.47461 8V6.732ZM17.2946 13.25C16.8686 12.533 15.9256 12.286 15.1856 12.701L13.0446 13.902V11.5C13.0446 10.672 12.3536 10 11.5006 10C10.6476 10 9.95661 10.672 9.95661 11.5V13.902L7.81561 12.701C7.07661 12.286 6.13361 12.533 5.70661 13.25C5.27961 13.968 5.53361 14.885 6.27161 15.299L8.41261 16.5L6.27161 17.701C5.53361 18.115 5.28061 19.032 5.70661 19.75C5.99261 20.231 6.51161 20.5 7.04461 20.5C7.30661 20.5 7.57161 20.436 7.81461 20.299L9.95561 19.098V21.5C9.95561 22.328 10.6466 23 11.4996 23C12.3526 23 13.0436 22.328 13.0436 21.5V19.098L15.1846 20.299C15.4276 20.436 15.6936 20.5 15.9546 20.5C16.4886 20.5 17.0066 20.231 17.2926 19.75C17.7196 19.032 17.4656 18.115 16.7276 17.701L14.5866 16.5L16.7276 15.299C17.4676 14.885 17.7206 13.968 17.2946 13.25ZM19.4466 5L20.5146 5.634C20.9806 5.91 21.1396 6.521 20.8686 7C20.6886 7.32 20.3616 7.5 20.0256 7.5C19.8616 7.5 19.6936 7.457 19.5406 7.366L18.4726 6.732V8C18.4726 8.553 18.0376 9 17.4996 9C16.9616 9 16.5266 8.553 16.5266 8V6.732L15.4586 7.366C15.3056 7.457 15.1386 7.5 14.9736 7.5C14.6376 7.5 14.3106 7.321 14.1306 7C13.8616 6.522 14.0216 5.91 14.4866 5.634L15.5546 5L14.4866 4.366C14.0216 4.09 13.8626 3.479 14.1306 3C14.3996 2.523 14.9926 2.357 15.4596 2.634L16.5276 3.268V2C16.5276 1.447 16.9626 1 17.5006 1C18.0386 1 18.4736 1.447 18.4736 2V3.268L19.5416 2.634C20.0076 2.356 20.6016 2.521 20.8706 3C21.1396 3.478 20.9796 4.09 20.5146 4.366L19.4466 5Z" fill="white"/>
</svg>
